HIERARCHY
ROOT joint_Root
{
	OFFSET 0.0 0.0 0.0
	CHANNELS 6 Xposition Yposition Zposition Zrotation Xrotation Yrotation 
	JOINT Hips
	{
		OFFSET 4.5925 91.4895 -427.239
		CHANNELS 6 Xposition Yposition Zposition Zrotation Xrotation Yrotation 
		JOINT Spine
		{
			OFFSET 15.7357 0.0 0.0
			CHANNELS 6 Xposition Yposition Zposition Zrotation Xrotation Yrotation 
			JOINT Chest
			{
				OFFSET 8.98455 -0.406207 0.0
				CHANNELS 6 Xposition Yposition Zposition Zrotation Xrotation Yrotation 
				JOINT Neck
				{
					OFFSET 16.3773 0.0 0.0
					CHANNELS 6 Xposition Yposition Zposition Zrotation Xrotation Yrotation 
					JOINT Head
					{
						OFFSET 6.45672 0.0 0.0
						CHANNELS 6 Xposition Yposition Zposition Zrotation Xrotation Yrotation 
						End Site
						{
							OFFSET 0.0 0.0 0.0
						}
					}
				}
				JOINT Shoulder_L
				{
					OFFSET 12.9942 -0.242716 4.98039
					CHANNELS 6 Xposition Yposition Zposition Zrotation Xrotation Yrotation 
					JOINT UpperArm_L
					{
						OFFSET 5.34809 0.0 0.0
						CHANNELS 6 Xposition Yposition Zposition Zrotation Xrotation Yrotation 
						JOINT LowerArm_L
						{
							OFFSET 24.3286 1.87007e-05 0.0
							CHANNELS 6 Xposition Yposition Zposition Zrotation Xrotation Yrotation 
							JOINT Hand_L
							{
								OFFSET 22.2916 0.0 0.0
								CHANNELS 6 Xposition Yposition Zposition Zrotation Xrotation Yrotation 
								End Site
								{
									OFFSET 0.0 0.0 0.0
								}
							}
						}
					}
				}
				JOINT Shoulder_R
				{
					OFFSET 12.9945 -0.242716 -4.98039
					CHANNELS 6 Xposition Yposition Zposition Zrotation Xrotation Yrotation 
					JOINT UpperArm_R
					{
						OFFSET -5.34813 0.0 0.0
						CHANNELS 6 Xposition Yposition Zposition Zrotation Xrotation Yrotation 
						JOINT LowerArm_R
						{
							OFFSET -24.3289 0.000322201 0.0
							CHANNELS 6 Xposition Yposition Zposition Zrotation Xrotation Yrotation 
							JOINT Hand_R
							{
								OFFSET -22.2915 -0.000108084 0.0
								CHANNELS 6 Xposition Yposition Zposition Zrotation Xrotation Yrotation 
								End Site
								{
									OFFSET 0.0 0.0 0.0
								}
							}
						}
					}
				}
			}
		}
		JOINT UpperLeg_L
		{
			OFFSET -2.19248 -6.46944 0.0
			CHANNELS 6 Xposition Yposition Zposition Zrotation Xrotation Yrotation 
			JOINT LowerLeg_L
			{
				OFFSET 39.0811 0.0 -1.23785e-05
				CHANNELS 6 Xposition Yposition Zposition Zrotation Xrotation Yrotation 
				JOINT Foot_L
				{
					OFFSET 40.9854 0.0 -1.26872e-05
					CHANNELS 6 Xposition Yposition Zposition Zrotation Xrotation Yrotation 
					JOINT Toes_L
					{
						OFFSET 11.7543 0.0 0.0
						CHANNELS 6 Xposition Yposition Zposition Zrotation Xrotation Yrotation 
						End Site
						{
							OFFSET 0.0 0.0 0.0
						}
					}
				}
			}
		}
		JOINT UpperLeg_R
		{
			OFFSET -2.19251 6.46944 0.0
			CHANNELS 6 Xposition Yposition Zposition Zrotation Xrotation Yrotation 
			JOINT LowerLeg_R
			{
				OFFSET -39.0811 -0.00228153 -0.0401928
				CHANNELS 6 Xposition Yposition Zposition Zrotation Xrotation Yrotation 
				JOINT Foot_R
				{
					OFFSET -40.9854 0.0 0.0
					CHANNELS 6 Xposition Yposition Zposition Zrotation Xrotation Yrotation 
					JOINT Toes_R
					{
						OFFSET -11.7543 0.0 0.0
						CHANNELS 6 Xposition Yposition Zposition Zrotation Xrotation Yrotation 
						End Site
						{
							OFFSET 0.0 0.0 0.0
						}
					}
				}
			}
		}
	}
}
MOTION
Frames:	8
Frame Time:	0.0333333
0.000000 0.000000 0.000000 0.000000 0.000000 -0.000000 131.562000 90.505700 -25.642400 89.863800 -3.695090 1.585950 15.735700 0.000005 -0.000001 95.885900 80.511600 -95.082600 8.984550 -0.406207 -0.000000 11.102200 1.954590 1.416000 16.377300 -0.000001 -0.000001 0.694797 -4.456510 2.519150 6.456720 -0.000001 -0.000000 -5.497540 -4.136040 -1.484810 12.994200 -0.242716 4.980390 -91.070200 3.644790 -73.625100 5.348090 -0.000007 -0.000001 -68.607500 33.231100 -9.865400 24.328600 0.000019 0.000005 6.674710 18.393000 -20.348800 22.291600 -0.000001 0.000005 10.411000 5.210220 2.461520 12.994500 -0.242716 -4.980390 88.880400 8.397520 -82.378000 -5.348130 -0.000001 -0.000004 -52.882600 28.483300 -26.718200 -24.328900 0.000322 -0.000009 -1.330060 -2.315130 -29.870800 -22.291500 -0.000108 -0.000004 19.817700 5.430460 -3.954820 -2.192480 -6.469440 -0.000000 179.126000 -14.569000 -23.623700 39.081100 -0.000007 -0.000012 0.017018 -0.025202 34.027900 40.985400 -0.000006 -0.000013 -0.678466 -1.526690 -61.485300 11.754300 -0.000000 0.000003 -0.002847 -0.038867 -18.157400 -2.192510 6.469440 -0.000001 179.897000 23.761700 170.867000 -39.081100 -0.002282 -0.040193 0.015283 -0.018842 32.462400 -40.985400 0.000008 0.000006 8.520740 5.128830 -73.012600 -11.754300 -0.000006 -0.000006 -0.006274 -0.073308 -19.556800
0.000000 0.000000 0.000000 0.000000 0.000000 -0.000000 131.808000 90.325000 -23.702500 89.486100 -4.218800 1.395180 15.735700 0.000005 -0.000001 95.405500 80.546400 -94.671400 8.984550 -0.406207 -0.000000 11.049800 1.788710 1.294620 16.377300 -0.000001 -0.000001 0.489567 -4.319240 2.618730 6.456720 -0.000001 -0.000000 -6.018420 -3.896520 -1.374240 12.994200 -0.242716 4.980390 -91.082400 3.708370 -73.716600 5.348090 -0.000007 -0.000001 -68.301500 33.928200 -10.559800 24.328600 0.000019 0.000005 6.623380 18.217500 -20.376200 22.291600 -0.000001 0.000005 10.430000 5.211470 2.429990 12.994500 -0.242716 -4.980390 88.883100 8.488310 -82.476000 -5.348130 -0.000001 -0.000004 -52.601500 28.798600 -26.085800 -24.328900 0.000322 -0.000009 -1.365950 -2.269070 -31.039200 -22.291500 -0.000108 -0.000004 19.912000 5.434960 -4.110150 -2.192480 -6.469440 -0.000000 178.409000 -15.547300 -24.431900 39.081100 -0.000007 -0.000012 0.064403 -0.110724 30.184100 40.985400 -0.000006 -0.000013 2.970540 -2.120470 -59.407600 11.754300 -0.000000 0.000003 -0.002474 -0.034500 -17.979700 -2.192510 6.469440 -0.000001 179.412000 23.768100 172.321000 -39.081100 -0.002282 -0.040193 0.011791 -0.013450 32.273000 -40.985400 0.000008 0.000006 8.035810 5.656740 -74.177800 -11.754300 -0.000006 -0.000006 -0.006671 -0.076809 -19.699700
0.000000 0.000000 0.000000 0.000000 0.000000 -0.000000 132.135000 89.998800 -21.390600 89.470400 -4.402390 1.300380 15.735700 0.000005 -0.000001 94.099200 80.639300 -93.579100 8.984550 -0.406207 -0.000000 10.903700 1.342650 0.911494 16.377300 -0.000001 -0.000001 0.600382 -4.267320 2.727590 6.456720 -0.000001 -0.000000 -6.260320 -3.703410 -1.017660 12.994200 -0.242716 4.980390 -91.076600 3.726230 -73.872500 5.348090 -0.000007 -0.000001 -67.730200 34.406600 -11.731200 24.328600 0.000019 0.000005 6.571710 18.268500 -20.178800 22.291600 -0.000001 0.000005 10.599500 5.212340 2.407970 12.994500 -0.242716 -4.980390 88.844500 8.753190 -82.450100 -5.348130 -0.000001 -0.000004 -52.421700 29.274100 -25.251000 -24.328900 0.000322 -0.000009 -1.509230 -2.469110 -31.430600 -22.291500 -0.000108 -0.000004 19.811600 5.439500 -4.268470 -2.192480 -6.469440 -0.000000 178.352000 -15.505900 -24.950100 39.081100 -0.000007 -0.000012 -0.058271 0.096136 31.222000 40.985400 -0.000006 -0.000013 3.090740 -2.121790 -56.909600 11.754300 -0.000000 0.000003 -0.001029 -0.015822 -17.220200 -2.192510 6.469440 -0.000001 178.474000 23.172400 173.733000 -39.081100 -0.002282 -0.040193 0.019605 -0.025312 32.794300 -40.985400 0.000008 0.000006 7.238100 5.305370 -75.516200 -11.754300 -0.000006 -0.000006 -0.005801 -0.069013 -19.381700
0.000000 0.000000 0.000000 0.000000 0.000000 -0.000000 132.536000 89.482000 -18.627400 89.640000 -4.610110 1.420910 15.735700 0.000005 -0.000001 93.070600 80.786100 -92.846500 8.984550 -0.406207 -0.000000 10.634500 0.985787 0.356270 16.377300 -0.000001 -0.000001 0.773225 -4.314730 2.714710 6.456720 -0.000001 -0.000000 -5.805000 -3.648530 -0.471480 12.994200 -0.242716 4.980390 -91.059200 3.672840 -73.900400 5.348090 -0.000007 -0.000001 -66.790800 35.201700 -13.263700 24.328600 0.000019 0.000005 6.455380 18.059400 -20.051300 22.291600 -0.000001 0.000005 10.750800 5.210600 2.452150 12.994500 -0.242716 -4.980390 88.781000 8.907760 -82.175300 -5.348130 -0.000001 -0.000004 -52.933500 29.804100 -23.808900 -24.328900 0.000322 -0.000009 -1.464220 -2.423750 -31.130800 -22.291500 -0.000108 -0.000004 19.755800 5.438540 -4.234650 -2.192480 -6.469440 -0.000000 178.792000 -13.135400 -24.949100 39.081100 -0.000007 -0.000012 -0.143468 0.201043 35.512800 40.985400 -0.000006 -0.000013 2.117300 -3.893170 -59.918500 11.754300 -0.000000 0.000003 -0.000289 -0.004738 -16.769900 -2.192510 6.469440 -0.000001 177.320000 21.482200 175.013000 -39.081100 -0.002282 -0.040193 0.018891 -0.022854 34.313500 -40.985400 0.000008 0.000006 6.129470 4.086120 -76.743700 -11.754300 -0.000006 -0.000006 -0.005322 -0.064548 -19.199600
0.000000 0.000000 0.000000 0.000000 0.000000 -0.000000 133.048000 89.072800 -15.956800 90.255200 -4.934370 1.360510 15.735700 0.000005 -0.000001 92.584600 81.021500 -92.820500 8.984550 -0.406207 -0.000000 10.175100 0.799544 -0.542788 16.377300 -0.000001 -0.000001 0.888705 -4.390160 2.525730 6.456720 -0.000001 -0.000000 -5.110810 -3.760660 0.155299 12.994200 -0.242716 4.980390 -91.092800 3.791770 -73.910000 5.348090 -0.000007 -0.000001 -65.111700 35.958900 -15.471500 24.328600 0.000019 0.000005 6.448740 18.123200 -19.969300 22.291600 -0.000001 0.000005 10.724900 5.206240 2.562310 12.994500 -0.242716 -4.980390 88.681200 9.227680 -81.830200 -5.348130 -0.000001 -0.000004 -54.155400 29.791300 -21.655300 -24.328900 0.000322 -0.000009 -1.292780 -2.207200 -30.347300 -22.291500 -0.000108 -0.000004 19.878300 5.437130 -4.185740 -2.192480 -6.469440 -0.000000 178.368000 -10.789800 -24.561800 39.081100 -0.000007 -0.000012 -0.226480 0.285158 38.458000 40.985400 -0.000006 -0.000013 1.157290 -6.264100 -63.213300 11.754300 -0.000000 0.000003 -0.000021 -0.000263 -16.587800 -2.192510 6.469440 -0.000001 176.120000 19.202100 174.580000 -39.081100 -0.002282 -0.040193 0.023149 -0.025612 37.797500 -40.985400 0.000008 0.000006 5.086210 2.104360 -76.241600 -11.754300 -0.000006 -0.000006 -0.008918 -0.095369 -20.457600
0.000000 0.000000 0.000000 0.000000 0.000000 -0.000000 133.521000 88.874800 -13.367600 90.083800 -5.150020 1.860310 15.735700 0.000005 -0.000001 92.302200 80.967200 -92.686000 8.984550 -0.406207 -0.000000 10.288100 0.712462 -0.831265 16.377300 -0.000001 -0.000001 0.927658 -4.353260 2.270050 6.456720 -0.000001 -0.000000 -4.844150 -3.844570 0.458809 12.994200 -0.242716 4.980390 -91.155600 3.988730 -73.828400 5.348090 -0.000007 -0.000001 -63.223700 36.116000 -18.072400 24.328600 0.000019 0.000005 6.592700 18.224700 -20.281700 22.291600 -0.000001 0.000005 11.172300 5.196560 2.805250 12.994500 -0.242716 -4.980390 88.645700 9.423380 -81.783900 -5.348130 -0.000001 -0.000004 -56.188600 28.951500 -19.057600 -24.328900 0.000322 -0.000009 -1.274700 -2.293980 -29.050300 -22.291500 -0.000108 -0.000004 20.046800 5.441960 -4.354670 -2.192480 -6.469440 -0.000000 178.564000 -10.107000 -23.031900 39.081100 -0.000007 -0.000012 -0.284885 0.335698 40.319600 40.985400 -0.000006 -0.000013 0.709999 -7.113500 -66.102500 11.754300 -0.000000 0.000003 -0.000082 -0.000864 -16.610800 -2.192510 6.469440 -0.000001 175.672000 17.499300 172.616000 -39.081100 -0.002282 -0.040193 0.060245 -0.057962 44.510100 -40.985400 0.000008 0.000006 4.687770 0.238888 -72.950800 -11.754300 -0.000006 -0.000006 -0.029587 -0.215566 -25.403300
0.000000 0.000000 0.000000 0.000000 0.000000 -0.000000 133.954000 88.893000 -11.032700 89.785000 -5.233440 2.439890 15.735700 0.000005 -0.000001 91.604200 80.783300 -92.023000 8.984550 -0.406207 -0.000000 10.662400 0.501842 -0.883868 16.377300 -0.000001 -0.000001 0.830887 -4.184930 1.916960 6.456720 -0.000001 -0.000000 -4.818340 -3.746540 0.552198 12.994200 -0.242716 4.980390 -91.168700 4.050960 -73.892500 5.348090 -0.000007 -0.000001 -61.722000 35.595900 -20.595900 24.328600 0.000019 0.000005 6.689390 17.896700 -20.889900 22.291600 -0.000001 0.000005 12.152100 5.187700 3.025530 12.994500 -0.242716 -4.980390 88.638600 9.516070 -81.819600 -5.348130 -0.000001 -0.000004 -58.075000 28.160000 -16.969500 -24.328900 0.000322 -0.000009 -1.357690 -2.649440 -27.129100 -22.291500 -0.000108 -0.000004 19.877500 5.437830 -4.210080 -2.192480 -6.469440 -0.000000 178.808000 -11.456600 -20.922700 39.081100 -0.000007 -0.000012 -0.304399 0.351723 40.875200 40.985400 -0.000006 -0.000013 1.021470 -6.111270 -68.211400 11.754300 -0.000000 0.000003 -0.000112 -0.001131 -16.620900 -2.192510 6.469440 -0.000001 175.658000 15.731000 168.920000 -39.081100 -0.002282 -0.040193 0.109855 -0.080848 52.827400 -40.985400 0.000008 0.000006 4.374010 -1.772650 -66.654800 -11.754300 -0.000006 -0.000006 -0.045491 -0.281297 -28.145100
0.000000 0.000000 0.000000 0.000000 0.000000 -0.000000 134.213000 89.063000 -8.845980 89.423100 -4.863510 2.889130 15.735700 0.000005 -0.000001 90.194200 80.611600 -90.570600 8.984550 -0.406207 -0.000000 11.011000 0.052518 -0.757446 16.377300 -0.000001 -0.000001 0.837689 -4.122770 1.654260 6.456720 -0.000001 -0.000000 -4.832900 -3.524930 0.490117 12.994200 -0.242716 4.980390 -91.097200 3.863390 -74.132700 5.348090 -0.000007 -0.000001 -60.554100 34.698100 -22.999700 24.328600 0.000019 0.000005 6.669530 17.179800 -21.597900 22.291600 -0.000001 0.000005 12.891600 5.184000 3.117320 12.994500 -0.242716 -4.980390 88.604200 9.580490 -81.671000 -5.348130 -0.000001 -0.000004 -59.537100 28.166900 -15.465400 -24.328900 0.000322 -0.000009 -1.357870 -2.955160 -24.673900 -22.291500 -0.000108 -0.000004 19.289900 5.435430 -4.125690 -2.192480 -6.469440 -0.000000 179.296000 -12.290900 -18.565600 39.081100 -0.000007 -0.000012 -0.297904 0.348319 40.539700 40.985400 -0.000006 -0.000013 1.274260 -5.001110 -69.753000 11.754300 -0.000000 0.000003 -0.000153 -0.001476 -16.633600 -2.192510 6.469440 -0.000001 176.270000 14.859200 164.780000 -39.081100 -0.002282 -0.040193 0.142470 -0.079743 60.205600 -40.985400 0.000008 0.000006 5.965630 -4.339540 -60.107600 -11.754300 -0.000006 -0.000006 -0.021798 -0.177050 -23.810200
